# xmcd
#
# Track frame offsets:
#	150
#	15582
#	35049
#	50909
#	66855
#	82783
#	96764
#	117190
#	134988
#	151560
#	167270
#	182587
#	197221
#	211039
#	225468
#	240429
#	254028
#	270923
#	286584
#	298828
#
# Disc length: 4205 seconds
#
# Revision: 3
# Processed by: cddbd v1.5.2PL0 Copyright (c) Steve Scherf et al.
# Submitted via: audiograbber 1.83.01
#
DISCID=10106b14
DTITLE=Hit Country - Summer Party 2 Disc 1
DYEAR=2010
DGENRE=Country
TTITLE0=Kenny Chesney - Summertime
TTITLE1=Brooks and Dunn - Hillbilly Deluxe
TTITLE2=Jack Ingram - Love You
TTITLE3=Billy Ray Cyrus - Real Gone
TTITLE4=Gretchen Wilson - All Jacked Up
TTITLE5=Rich and Big - Soul Shaker
TTITLE6=Primal Scream - Country Girl
TTITLE7=Emerson Drive - The Devil went Down to Georgia
TTITLE8=Jessica Simpson - These Boots Are Made For Walkin
TTITLE9=Steve Forde - No Wrong
TTITLE10=Willie Mack - Gonna Get Me That Cadillac
TTITLE11=Wheel Shedaisy - Im Taking the Wheel
TTITLE12=Jewel - Only One Too
TTITLE13=Travis Collins - Yeah She Does
TTITLE14=Gary Allan - As the Crow Flies
TTITLE15=Catherine Britt - Im Gone
TTITLE16=Doc Walker - Maria
TTITLE17=Julianne Hough - My Hallelujah Song
TTITLE18=8 Ball Aitkin - Outback Bootie Call
TTITLE19=The Wilkinsons - Six Pack
EXTD=
EXTT0=
EXTT1=
EXTT2=
EXTT3=
EXTT4=
EXTT5=
EXTT6=
EXTT7=
EXTT8=
EXTT9=
EXTT10=
EXTT11=
EXTT12=
EXTT13=
EXTT14=
EXTT15=
EXTT16=
EXTT17=
EXTT18=
EXTT19=
PLAYORDER=
